# xmcd CD database file
#
# Track frame offsets:
#	150
#	17224
#	34254
#	48818
#	68922
#	87255
#	102823
#	122902
#	140374
#	153243
#	171276
#	193044
#	217100
#
# Disc length: 3148 seconds
#
# Revision: 1
# Processed by: cddbd v1.5.1PL2 Copyright (c) Steve Scherf et al.
# Submitted via: CDex 1.51
#
DISCID=b40c4a0d
DTITLE=fabrizio bentivoglio and quintetto di musicanormale - sottotraccia
DYEAR=2001
DGENRE=Jazz
TTITLE0=se fossi nato a napoli
TTITLE1=prima di te
TTITLE2=senza rete
TTITLE3=un'altra vita
TTITLE4=tipota
TTITLE5=nebbia di san silvestro
TTITLE6=bouquet
TTITLE7=il difficile
TTITLE8=la pupa del gangster
TTITLE9=sulla carta
TTITLE10=zagolin
TTITLE11=sottotraccia
TTITLE12=periodi caldi
EXTD=YEAR: 2001
EXTT0=
EXTT1=
EXTT2=
EXTT3=
EXTT4=
EXTT5=
EXTT6=
EXTT7=
EXTT8=
EXTT9=
EXTT10=
EXTT11=
EXTT12=
PLAYORDER=
